<svg width="128" height="128" viewBox="0 0 128 128" fill="none" xmlns="http://www.w3.org/2000/svg">
<path d="M78 37C78 51.9117 65.9117 64 51 64C36.0883 64 24 51.9117 24 37C24 22.0883 36.0883 10 51 10C65.9117 10 78 22.0883 78 37ZM29.4 37C29.4 48.9294 39.0706 58.6 51 58.6C62.9294 58.6 72.6 48.9294 72.6 37C72.6 25.0707 62.9294 15.4 51 15.4C39.0706 15.4 29.4 25.0707 29.4 37Z" fill="url(#paint0_linear_278_1060)"/>
<path d="M52.7 37C51.2088 37 49.986 35.7881 50.1349 34.3044C50.6455 29.2145 52.5946 24.3538 55.7807 20.3045C59.5254 15.5451 64.7615 12.1828 70.6475 10.758C76.5334 9.33312 82.7275 9.92845 88.2344 12.4483C93.7412 14.9681 98.2411 19.2661 101.011 24.6516C103.78 30.0371 104.659 36.1974 103.506 42.1425C102.352 48.0877 99.2337 53.4724 94.651 57.4314C90.0683 61.3905 84.2877 63.6939 78.2381 63.9716C73.091 64.2079 68.0035 62.9661 63.5662 60.4208C62.2727 59.6789 61.9982 57.9793 62.8655 56.7663C63.7329 55.5534 65.413 55.2901 66.7246 55.9995C70.1612 57.858 74.0541 58.758 77.9905 58.5773C82.8302 58.3551 87.4547 56.5124 91.1208 53.3451C94.7869 50.1779 97.2818 45.8701 98.2046 41.114C99.1274 36.3579 98.4244 31.4297 96.2086 27.1213C93.9929 22.8129 90.393 19.3745 85.9875 17.3586C81.582 15.3428 76.6268 14.8665 71.918 16.0064C67.2092 17.1463 63.0203 19.8361 60.0246 23.6436C57.5879 26.7405 56.0556 30.4305 55.5685 34.307C55.3826 35.7865 54.1912 37 52.7 37Z" fill="url(#paint1_linear_278_1060)"/>
<path d="M53.0005 44.3961C51.5474 43.9832 50.6909 42.4536 51.1039 41.0005C51.5168 39.5474 53.0464 38.6909 54.4995 39.1039C55.9526 39.5168 56.8091 41.0464 56.3961 42.4995C55.9832 43.9526 54.4536 44.8091 53.0005 44.3961Z" fill="#24E5B6"/>
<path d="M22.6938 116C18.1815 116 14.1013 113.524 11.7972 109.396C9.42107 105.119 9.39707 100.017 11.7492 95.7142C20.6297 79.4806 41.1508 69 64 69C86.8492 69 107.37 79.4806 116.251 95.7142C118.603 100.017 118.579 105.119 116.203 109.396C113.899 113.524 109.818 116 105.306 116H22.6938ZM64 75.6035C43.3589 75.6035 24.9979 84.7834 17.2215 98.991C15.9974 101.217 16.0214 103.869 17.2455 106.095C18.3976 108.171 20.4377 109.422 22.6698 109.422H105.282C107.514 109.422 109.554 108.171 110.707 106.095C111.955 103.869 111.955 101.217 110.731 98.991C102.954 84.7834 84.5931 75.6035 63.952 75.6035H64Z" fill="url(#paint2_linear_278_1060)"/>
<defs>
<linearGradient id="paint0_linear_278_1060" x1="53.125" y1="3.125" x2="66.625" y2="65.875" gradientUnits="userSpaceOnUse">
<stop stop-color="#0E63EC"/>
<stop offset="1" stop-color="#24E5B6"/>
</linearGradient>
<linearGradient id="paint1_linear_278_1060" x1="53.125" y1="3.125" x2="66.625" y2="65.875" gradientUnits="userSpaceOnUse">
<stop stop-color="#0E63EC"/>
<stop offset="1" stop-color="#24E5B6"/>
</linearGradient>
<linearGradient id="paint2_linear_278_1060" x1="63.375" y1="61.625" x2="64" y2="113.5" gradientUnits="userSpaceOnUse">
<stop stop-color="#24E5B6"/>
<stop offset="1" stop-color="#0E63EC"/>
</linearGradient>
</defs>
</svg>
