<svg width="103" height="48" viewBox="0 0 103 48" fill="none" xmlns="http://www.w3.org/2000/svg">
<path d="M13.1151 16.269C13.1151 15.6375 12.8942 15.1684 12.4338 14.8256C11.9919 14.4828 11.1816 14.14 10.0031 13.7611C8.84299 13.3823 7.90386 13.0214 7.22252 12.6606C5.36267 11.6682 4.44194 10.3512 4.44194 8.69128C4.44194 7.03139 4.69975 7.04943 5.19694 6.38187C5.69413 5.69626 6.41229 5.17304 7.35142 4.79415C8.29056 4.41526 9.32177 4.2168 10.5003 4.2168C11.6788 4.2168 12.71 4.41526 13.6307 4.83024C14.5515 5.24521 15.2512 5.82256 15.7668 6.58033C16.264 7.33811 16.5218 8.18609 16.5218 9.16038H13.152C13.152 8.42064 12.9126 7.86133 12.4522 7.44636C11.9734 7.03139 11.3105 6.83292 10.4635 6.83292C9.6164 6.83292 8.9903 6.9953 8.54836 7.33811C8.10641 7.68091 7.86703 8.13197 7.86703 8.69128C7.86703 9.25059 8.14324 9.64752 8.67726 10.0084C9.21128 10.3692 10.0031 10.694 11.0343 11.0007C12.9494 11.56 14.3489 12.2636 15.2328 13.1116C16.1167 13.9416 16.5402 14.988 16.5402 16.2329C16.5402 17.4779 16.0062 18.7047 14.9382 19.4986C13.8701 20.2924 12.4338 20.6894 10.6108 20.6894C8.78775 20.6894 8.19849 20.4548 7.16728 20.0038C6.13607 19.5527 5.34425 18.9393 4.81023 18.1454C4.27622 17.3516 4 16.4494 4 15.421H7.38825C7.38825 17.1892 8.4747 18.0732 10.6292 18.0732C12.7837 18.0732 12.0471 17.9109 12.5075 17.5861C12.9494 17.2613 13.1888 16.8283 13.1888 16.251L13.1151 16.269Z" fill="#13161F"/>
<path d="M23.0959 15.9803L25.3425 8.56492H28.8228L23.943 22.3312L23.6667 22.9626C22.9486 24.5143 21.7332 25.2901 20.0759 25.2901C18.4186 25.2901 19.1184 25.2179 18.6396 25.0736V22.6559H19.1368C19.7445 22.6559 20.2048 22.5837 20.5179 22.3853C20.8125 22.2049 21.0519 21.8981 21.236 21.4651L21.6227 20.4908L17.369 8.54688H20.8678L23.1327 15.9622L23.0959 15.9803Z" fill="#13161F"/>
<path d="M33.0951 8.99775L33.1872 10.369C34.0527 9.30446 35.2128 8.78124 36.6859 8.78124C38.1591 8.78124 38.9325 9.16013 39.5586 9.89986C40.1847 10.6396 40.5161 11.7402 40.5161 13.2196V20.9056H37.2752V13.2918C37.2752 12.6242 37.1279 12.1191 36.8332 11.8304C36.5386 11.5417 36.0414 11.3793 35.3417 11.3793C34.6419 11.3793 33.7396 11.7582 33.2793 12.516V20.9056H30.0383V8.99775H33.0951Z" fill="#13161F"/>
<path d="M46.8687 5.85838V8.78123H48.9495V11.1087H46.8687V17.0446C46.8687 17.4776 46.9608 17.8023 47.1265 17.9828C47.2922 18.1812 47.6237 18.2714 48.1209 18.2714C48.6181 18.2714 48.8022 18.2534 49.0784 18.1993V20.6169C48.4339 20.8154 47.7894 20.9056 47.1081 20.9056C44.8247 20.9056 43.6646 19.787 43.6278 17.5317V11.1087H41.86V8.78123H43.6278V5.85838H46.8687Z" fill="#13161F"/>
<path d="M53.9398 10.2787C54.8053 9.26833 55.8917 8.76315 57.1807 8.76315C59.814 8.76315 61.1582 10.2607 61.1951 13.2737V20.9056H57.9541V13.3639C57.9541 12.6783 57.8068 12.1731 57.5122 11.8484C57.2175 11.5236 56.7204 11.3612 56.0206 11.3612C55.3209 11.3612 54.3817 11.7221 53.9582 12.4438V20.9056H50.7173V3.99999H53.9582V10.2967L53.9398 10.2787Z" fill="#13161F"/>
<path d="M69.224 20.9058C67.4378 20.9058 65.9831 20.3646 64.8782 19.3001C63.755 18.2356 63.2025 16.8102 63.2025 15.024V14.7173C63.2025 13.5265 63.4419 12.444 63.9023 11.5058C64.381 10.5676 65.044 9.82788 65.9094 9.3227C66.7749 8.81751 67.7693 8.56492 68.8742 8.56492C70.5315 8.56492 71.8389 9.07011 72.7964 10.0985C73.754 11.1269 74.2328 12.5883 74.2328 14.4647V15.7638H66.4987C66.6092 16.5396 66.9222 17.1711 67.4563 17.6402C67.9903 18.1093 68.6532 18.3438 69.4634 18.3438C70.7156 18.3438 71.6916 17.8928 72.3913 17.0087L73.9934 18.7588C73.5146 19.4264 72.8517 19.9676 72.023 20.3465C71.1944 20.7254 70.2737 20.9058 69.2609 20.9058H69.224ZM68.8557 11.1089C68.2112 11.1089 67.6956 11.3254 67.2905 11.7584C66.8854 12.1914 66.6276 12.8049 66.5171 13.5987H71.0286V13.3461C71.0286 12.6425 70.8261 12.0832 70.4394 11.7043C70.0711 11.3254 69.5371 11.1269 68.8373 11.1269L68.8557 11.1089Z" fill="#13161F"/>
<path d="M79.9595 5.85838V8.78123H82.0403V11.1087H79.9595V17.0446C79.9595 17.4776 80.0515 17.8023 80.2173 17.9828C80.383 18.1812 80.7145 18.2714 81.2116 18.2714C81.7088 18.2714 81.893 18.2534 82.1692 18.1993V20.6169C81.5247 20.8154 80.8802 20.9056 80.1989 20.9056C77.9155 20.9056 76.7554 19.787 76.7185 17.5317V11.1087H74.9507V8.78123H76.7185V5.85838H79.9595Z" fill="#13161F"/>
<path d="M83.5657 5.7422C83.5657 5.32779 83.6983 4.97713 83.9634 4.70616C84.2286 4.4352 84.5822 4.29175 85.0241 4.29175C85.466 4.29175 85.8196 4.4352 86.0848 4.70616C86.3499 4.97713 86.4825 5.32779 86.4825 5.7422C86.4825 6.15662 86.3499 6.52322 86.0848 6.79418C85.8196 7.06515 85.466 7.2086 85.0241 7.2086C84.5822 7.2086 84.2286 7.06515 83.9634 6.79418C83.6983 6.52322 83.5657 6.17256 83.5657 5.7422Z" fill="url(#paint0_linear_278_1042)"/>
<path d="M86.4978 8.63721H83.5505V39.6699H86.4978V8.63721Z" fill="#0E63EC"/>
<path d="M93.531 18.3258C94.1387 18.3258 94.6175 18.1634 94.9858 17.8386C95.3541 17.5139 95.5566 17.0809 95.5751 16.5576H98.6134C98.6134 17.3695 98.374 18.1093 97.9321 18.7768C97.4901 19.4444 96.8825 19.9676 96.1091 20.3465C95.3357 20.7254 94.4886 20.9058 93.5679 20.9058C91.8369 20.9058 90.4558 20.3645 89.4615 19.282C88.4487 18.1995 87.9515 16.702 87.9515 14.7895V14.573C87.9515 12.7327 88.4487 11.2713 89.443 10.1887C90.4374 9.08814 91.8001 8.54688 93.5495 8.54688C95.2988 8.54688 96.2932 8.96185 97.2139 9.80983C98.1346 10.6578 98.595 11.7945 98.6134 13.2018H95.5751C95.5751 12.5883 95.3725 12.0832 94.9858 11.6862C94.6175 11.3073 94.1203 11.1089 93.4942 11.1089C92.8681 11.1089 92.1684 11.3795 91.7817 11.9208C91.395 12.462 91.2108 13.3461 91.2108 14.5549V14.8797C91.2108 16.1066 91.395 16.9906 91.7817 17.5319C92.1684 18.0732 92.7392 18.3438 93.531 18.3438V18.3258Z" fill="#13161F"/>
<path d="M38.2142 34.0225V39.6697H34.8444V23.6482H41.2342C42.468 23.6482 43.536 23.8647 44.4751 24.3158C45.4143 24.7488 46.1324 25.3803 46.6296 26.1922C47.1268 27.0041 47.3846 27.9242 47.3846 28.9526C47.3846 30.5223 46.8322 31.7672 45.7457 32.6693C44.6409 33.5714 43.1309 34.0225 41.1974 34.0225H38.2511H38.2142ZM38.2142 31.3522H41.2158C42.0997 31.3522 42.781 31.1538 43.2598 30.7388C43.7201 30.3238 43.9595 29.7465 43.9595 28.9707C43.9595 28.1948 43.7201 27.5453 43.2598 27.0582C42.781 26.571 42.1365 26.3185 41.3079 26.3185H38.2142V31.3522Z" fill="#13161F"/>
<path d="M81.8011 33.5897C81.8011 35.43 81.3775 36.8915 80.5305 37.992C79.6834 39.0926 78.5417 39.6519 77.087 39.6519C75.6322 39.6519 74.8588 39.237 74.1038 38.389V44.0001H70.8629V27.5095H73.8645L73.9749 28.6822C74.7668 27.7621 75.7796 27.293 77.0502 27.293C78.3208 27.293 79.7202 27.8343 80.5489 28.9168C81.3775 29.9993 81.8011 31.4968 81.8011 33.4093V33.5717V33.5897ZM78.5601 33.3552C78.5601 32.2546 78.3576 31.3886 77.9525 30.7932C77.5473 30.1978 76.9765 29.8911 76.2031 29.8911C75.4297 29.8911 74.4906 30.27 74.1038 31.0277V35.8991C74.509 36.693 75.2087 37.0719 76.2215 37.0719C77.7683 37.0719 78.5417 35.827 78.5417 33.3371L78.5601 33.3552Z" fill="#13161F"/>
<path d="M93.9913 39.7418C92.2051 39.7418 90.7504 39.2005 89.6455 38.136C88.5222 37.0715 87.9698 35.6462 87.9698 33.86V33.5533C87.9698 32.3625 88.2092 31.28 88.6695 30.3418C89.1483 29.4036 89.8112 28.6638 90.6767 28.1587C91.5422 27.6535 92.5366 27.4009 93.6414 27.4009C95.2987 27.4009 96.6061 27.9061 97.5637 28.9345C98.5212 29.9629 99 31.4243 99 33.3007V34.5997H91.266C91.3764 35.3756 91.6895 36.007 92.2235 36.4761C92.7575 36.9452 93.4205 37.1798 94.2307 37.1798C95.4829 37.1798 96.4588 36.7287 97.1586 35.8446L98.7606 37.5947C98.2819 38.2623 97.6189 38.8036 96.7903 39.1825C95.9616 39.5614 95.0409 39.7418 94.0281 39.7418H93.9913ZM93.623 29.9629C92.9785 29.9629 92.4629 30.1794 92.0578 30.6124C91.6527 31.0454 91.3949 31.6588 91.2844 32.4527H95.7959V32.2001C95.7959 31.4965 95.5934 30.9372 95.2067 30.5583C94.8384 30.1794 94.3043 29.9809 93.6046 29.9809L93.623 29.9629Z" fill="#13161F"/>
<path d="M64.8965 30.8288C65.1813 30.8288 65.4121 30.6026 65.4121 30.3236C65.4121 30.0446 65.1813 29.8185 64.8965 29.8185C64.6118 29.8185 64.3809 30.0446 64.3809 30.3236C64.3809 30.6026 64.6118 30.8288 64.8965 30.8288Z" fill="url(#paint1_linear_278_1042)"/>
<path d="M67.585 32.4346C67.8698 32.4346 68.1006 32.2084 68.1006 31.9294C68.1006 31.6504 67.8698 31.4242 67.585 31.4242C67.3003 31.4242 67.0694 31.6504 67.0694 31.9294C67.0694 32.2084 67.3003 32.4346 67.585 32.4346Z" fill="url(#paint2_linear_278_1042)"/>
<path d="M68.5242 33.1924C68.7581 33.1924 68.9477 33.0066 68.9477 32.7774C68.9477 32.5482 68.7581 32.3624 68.5242 32.3624C68.2902 32.3624 68.1006 32.5482 68.1006 32.7774C68.1006 33.0066 68.2902 33.1924 68.5242 33.1924Z" fill="url(#paint3_linear_278_1042)"/>
<path d="M66.5538 34.9244C66.7877 34.9244 66.9774 34.7386 66.9774 34.5094C66.9774 34.2802 66.7877 34.0945 66.5538 34.0945C66.3199 34.0945 66.1303 34.2802 66.1303 34.5094C66.1303 34.7386 66.3199 34.9244 66.5538 34.9244Z" fill="url(#paint4_linear_278_1042)"/>
<path d="M63.4234 37.5947C63.6573 37.5947 63.8469 37.4089 63.8469 37.1797C63.8469 36.9505 63.6573 36.7647 63.4234 36.7647C63.1895 36.7647 62.9998 36.9505 62.9998 37.1797C62.9998 37.4089 63.1895 37.5947 63.4234 37.5947Z" fill="#0E63EC"/>
<path d="M67.9165 30.3778C68.1504 30.3778 68.34 30.192 68.34 29.9628C68.34 29.7336 68.1504 29.5478 67.9165 29.5478C67.6826 29.5478 67.493 29.7336 67.493 29.9628C67.493 30.192 67.6826 30.3778 67.9165 30.3778Z" fill="url(#paint5_linear_278_1042)"/>
<path d="M67.493 35.7724C67.7269 35.7724 67.9165 35.5866 67.9165 35.3574C67.9165 35.1283 67.7269 34.9425 67.493 34.9425C67.259 34.9425 67.0694 35.1283 67.0694 35.3574C67.0694 35.5866 67.259 35.7724 67.493 35.7724Z" fill="url(#paint6_linear_278_1042)"/>
<path d="M65.7252 37.6127C66.1014 37.6127 66.4065 37.3219 66.4065 36.9632C66.4065 36.6045 66.1014 36.3137 65.7252 36.3137C65.3489 36.3137 65.0438 36.6045 65.0438 36.9632C65.0438 37.3219 65.3489 37.6127 65.7252 37.6127Z" fill="#0E63EC"/>
<path d="M63.4234 28.2307C63.6573 28.2307 63.8469 28.0449 63.8469 27.8158C63.8469 27.5866 63.6573 27.4008 63.4234 27.4008C63.1895 27.4008 62.9998 27.5866 62.9998 27.8158C62.9998 28.0449 63.1895 28.2307 63.4234 28.2307Z" fill="url(#paint7_linear_278_1042)"/>
<path d="M63.276 29.8185C63.51 29.8185 63.6996 29.6327 63.6996 29.4035C63.6996 29.1743 63.51 28.9885 63.276 28.9885C63.0421 28.9885 62.8525 29.1743 62.8525 29.4035C62.8525 29.6327 63.0421 29.8185 63.276 29.8185Z" fill="url(#paint8_linear_278_1042)"/>
<path d="M68.1559 36.7647C68.3288 36.7647 68.4689 36.6355 68.4689 36.476C68.4689 36.3166 68.3288 36.1874 68.1559 36.1874C67.983 36.1874 67.8428 36.3166 67.8428 36.476C67.8428 36.6355 67.983 36.7647 68.1559 36.7647Z" fill="url(#paint9_linear_278_1042)"/>
<path d="M64.3809 38.8576C64.5741 38.8576 64.7308 38.7122 64.7308 38.5329C64.7308 38.3535 64.5741 38.2081 64.3809 38.2081C64.1877 38.2081 64.031 38.3535 64.031 38.5329C64.031 38.7122 64.1877 38.8576 64.3809 38.8576Z" fill="#0E63EC"/>
<path d="M66.0382 30.1974C66.2111 30.1974 66.3513 30.0681 66.3513 29.9087C66.3513 29.7492 66.2111 29.62 66.0382 29.62C65.8653 29.62 65.7252 29.7492 65.7252 29.9087C65.7252 30.0681 65.8653 30.1974 66.0382 30.1974Z" fill="url(#paint10_linear_278_1042)"/>
<path d="M65.2096 28.3931C65.3824 28.3931 65.5226 28.2639 65.5226 28.1044C65.5226 27.945 65.3824 27.8158 65.2096 27.8158C65.0367 27.8158 64.8965 27.945 64.8965 28.1044C64.8965 28.2639 65.0367 28.3931 65.2096 28.3931Z" fill="url(#paint11_linear_278_1042)"/>
<path d="M64.1415 29.4576C64.3144 29.4576 64.4546 29.3284 64.4546 29.1689C64.4546 29.0095 64.3144 28.8803 64.1415 28.8803C63.9686 28.8803 63.8285 29.0095 63.8285 29.1689C63.8285 29.3284 63.9686 29.4576 64.1415 29.4576Z" fill="url(#paint12_linear_278_1042)"/>
<path d="M64.4362 36.8188C64.609 36.8188 64.7492 36.6896 64.7492 36.5302C64.7492 36.3707 64.609 36.2415 64.4362 36.2415C64.2633 36.2415 64.1231 36.3707 64.1231 36.5302C64.1231 36.6896 64.2633 36.8188 64.4362 36.8188Z" fill="#0E63EC"/>
<path d="M66.7196 33.5893C66.9535 33.5893 67.1431 33.4035 67.1431 33.1743C67.1431 32.9451 66.9535 32.7594 66.7196 32.7594C66.4856 32.7594 66.296 32.9451 66.296 33.1743C66.296 33.4035 66.4856 33.5893 66.7196 33.5893Z" fill="url(#paint13_linear_278_1042)"/>
<path d="M67.8428 34.5094C67.9649 34.5094 68.0638 34.4125 68.0638 34.2929C68.0638 34.1734 67.9649 34.0764 67.8428 34.0764C67.7208 34.0764 67.6219 34.1734 67.6219 34.2929C67.6219 34.4125 67.7208 34.5094 67.8428 34.5094Z" fill="#0E63EC"/>
<path d="M63.1471 30.8829C63.2692 30.8829 63.3681 30.786 63.3681 30.6664C63.3681 30.5469 63.2692 30.4499 63.1471 30.4499C63.0251 30.4499 62.9262 30.5469 62.9262 30.6664C62.9262 30.786 63.0251 30.8829 63.1471 30.8829Z" fill="url(#paint14_linear_278_1042)"/>
<path d="M64.6203 37.9555C64.7423 37.9555 64.8413 37.8586 64.8413 37.739C64.8413 37.6194 64.7423 37.5225 64.6203 37.5225C64.4983 37.5225 64.3993 37.6194 64.3993 37.739C64.3993 37.8586 64.4983 37.9555 64.6203 37.9555Z" fill="#0E63EC"/>
<path d="M66.5538 38.2983C66.6758 38.2983 66.7748 38.2014 66.7748 38.0818C66.7748 37.9622 66.6758 37.8653 66.5538 37.8653C66.4318 37.8653 66.3328 37.9622 66.3328 38.0818C66.3328 38.2014 66.4318 38.2983 66.5538 38.2983Z" fill="#0E63EC"/>
<path d="M64.8413 39.2906C64.9633 39.2906 65.0622 39.1937 65.0622 39.0741C65.0622 38.9546 64.9633 38.8576 64.8413 38.8576C64.7192 38.8576 64.6203 38.9546 64.6203 39.0741C64.6203 39.1937 64.7192 39.2906 64.8413 39.2906Z" fill="#0E63EC"/>
<path d="M65.6515 35.9889C65.7735 35.9889 65.8725 35.892 65.8725 35.7724C65.8725 35.6528 65.7735 35.5559 65.6515 35.5559C65.5295 35.5559 65.4305 35.6528 65.4305 35.7724C65.4305 35.892 65.5295 35.9889 65.6515 35.9889Z" fill="#0E63EC"/>
<path d="M63.497 39.2906C63.6191 39.2906 63.718 39.1937 63.718 39.0741C63.718 38.9546 63.6191 38.8576 63.497 38.8576C63.375 38.8576 63.2761 38.9546 63.2761 39.0741C63.2761 39.1937 63.375 39.2906 63.497 39.2906Z" fill="#0E63EC"/>
<path d="M66.3329 32.3624C66.4549 32.3624 66.5538 32.2655 66.5538 32.1459C66.5538 32.0263 66.4549 31.9294 66.3329 31.9294C66.2108 31.9294 66.1119 32.0263 66.1119 32.1459C66.1119 32.2655 66.2108 32.3624 66.3329 32.3624Z" fill="url(#paint15_linear_278_1042)"/>
<path d="M65.8909 31.5866C66.0129 31.5866 66.1119 31.4897 66.1119 31.3701C66.1119 31.2505 66.0129 31.1536 65.8909 31.1536C65.7689 31.1536 65.6699 31.2505 65.6699 31.3701C65.6699 31.4897 65.7689 31.5866 65.8909 31.5866Z" fill="url(#paint16_linear_278_1042)"/>
<path d="M66.1671 35.1409C66.1671 35.0688 66.1119 35.0146 66.0198 35.0146C65.9277 35.0146 65.8725 35.0688 65.8725 35.1409C65.8725 35.2131 65.9277 35.2672 66.0198 35.2672C66.1119 35.2672 66.1671 35.2131 66.1671 35.1409Z" fill="url(#paint17_linear_278_1042)"/>
<path d="M66.5538 35.7363C66.6352 35.7363 66.7011 35.6798 66.7011 35.61C66.7011 35.5403 66.6352 35.4837 66.5538 35.4837C66.4725 35.4837 66.4065 35.5403 66.4065 35.61C66.4065 35.6798 66.4725 35.7363 66.5538 35.7363Z" fill="url(#paint18_linear_278_1042)"/>
<path d="M67.1247 37.0534C67.1247 36.9812 67.0694 36.9271 66.9773 36.9271C66.8853 36.9271 66.83 36.9812 66.83 37.0534C66.83 37.1256 66.8853 37.1797 66.9773 37.1797C67.0694 37.1797 67.1247 37.1256 67.1247 37.0534Z" fill="#0E63EC"/>
<path d="M65.5594 38.0818C65.5594 38.0096 65.5042 37.9555 65.4121 37.9555C65.3201 37.9555 65.2648 38.0096 65.2648 38.0818C65.2648 38.154 65.3201 38.2081 65.4121 38.2081C65.5042 38.2081 65.5594 38.154 65.5594 38.0818Z" fill="#0E63EC"/>
<path d="M67.6219 37.5225C67.6219 37.4503 67.5666 37.3962 67.4745 37.3962C67.3825 37.3962 67.3272 37.4503 67.3272 37.5225C67.3272 37.5947 67.3825 37.6488 67.4745 37.6488C67.5666 37.6488 67.6219 37.5947 67.6219 37.5225Z" fill="url(#paint19_linear_278_1042)"/>
<path d="M65.7067 38.9298C65.7067 38.8576 65.6515 38.8035 65.5594 38.8035C65.4674 38.8035 65.4121 38.8576 65.4121 38.9298C65.4121 39.002 65.4674 39.0561 65.5594 39.0561C65.6515 39.0561 65.7067 39.002 65.7067 38.9298Z" fill="#0E63EC"/>
<path d="M63.6628 38.2983C63.6628 38.172 63.5523 38.0638 63.4234 38.0638C63.2945 38.0638 63.184 38.172 63.184 38.2983C63.184 38.4246 63.2945 38.5329 63.4234 38.5329C63.5523 38.5329 63.6628 38.4246 63.6628 38.2983Z" fill="url(#paint20_linear_278_1042)"/>
<path d="M64.4177 37.1797C64.4177 37.1075 64.3625 37.0534 64.2704 37.0534C64.1784 37.0534 64.1231 37.1075 64.1231 37.1797C64.1231 37.2519 64.1784 37.306 64.2704 37.306C64.3625 37.306 64.4177 37.2519 64.4177 37.1797Z" fill="#0E63EC"/>
<path d="M63.4418 28.6096C63.4418 28.5375 63.3865 28.4833 63.2945 28.4833C63.2024 28.4833 63.1471 28.5375 63.1471 28.6096C63.1471 28.6818 63.2024 28.7359 63.2945 28.7359C63.3865 28.7359 63.4418 28.6818 63.4418 28.6096Z" fill="url(#paint21_linear_278_1042)"/>
<path d="M64.5282 28.2127C64.5282 28.1405 64.473 28.0864 64.3809 28.0864C64.2888 28.0864 64.2336 28.1405 64.2336 28.2127C64.2336 28.2849 64.2888 28.339 64.3809 28.339C64.473 28.339 64.5282 28.2849 64.5282 28.2127Z" fill="url(#paint22_linear_278_1042)"/>
<path d="M65.9277 28.8622C65.9277 28.7901 65.8725 28.7359 65.7804 28.7359C65.6883 28.7359 65.6331 28.7901 65.6331 28.8622C65.6331 28.9344 65.6883 28.9885 65.7804 28.9885C65.8725 28.9885 65.9277 28.9344 65.9277 28.8622Z" fill="url(#paint23_linear_278_1042)"/>
<path d="M67.272 30.6664C67.272 30.5943 67.2167 30.5401 67.1247 30.5401C67.0326 30.5401 66.9773 30.5943 66.9773 30.6664C66.9773 30.7386 67.0326 30.7927 67.1247 30.7927C67.2167 30.7927 67.272 30.7386 67.272 30.6664Z" fill="url(#paint24_linear_278_1042)"/>
<path d="M66.8484 31.4242C66.8484 31.352 66.7932 31.2979 66.7011 31.2979C66.6091 31.2979 66.5538 31.352 66.5538 31.4242C66.5538 31.4964 66.6091 31.5505 66.7011 31.5505C66.7932 31.5505 66.8484 31.4964 66.8484 31.4242Z" fill="url(#paint25_linear_278_1042)"/>
<path d="M68.7635 34.762C68.7635 34.6899 68.7083 34.6357 68.6162 34.6357C68.5242 34.6357 68.4689 34.6899 68.4689 34.762C68.4689 34.8342 68.5242 34.8883 68.6162 34.8883C68.7083 34.8883 68.7635 34.8342 68.7635 34.762Z" fill="url(#paint26_linear_278_1042)"/>
<path d="M67.7507 33.5893C67.7507 33.5171 67.6955 33.463 67.6034 33.463C67.5114 33.463 67.4561 33.5171 67.4561 33.5893C67.4561 33.6614 67.5114 33.7156 67.6034 33.7156C67.6955 33.7156 67.7507 33.6614 67.7507 33.5893Z" fill="url(#paint27_linear_278_1042)"/>
<path d="M63.2945 34.6357C63.925 34.6357 64.4362 34.143 64.4362 33.5352C64.4362 32.9273 63.925 32.4346 63.2945 32.4346C62.6639 32.4346 62.1528 32.9273 62.1528 33.5352C62.1528 34.143 62.6639 34.6357 63.2945 34.6357Z" fill="#0E63EC"/>
<path d="M62.8341 37.0895C62.0423 37.0895 61.4346 36.7828 61.0111 36.1874C60.5691 35.592 60.3666 34.7259 60.3666 33.5893C60.3666 32.4526 60.5875 31.3881 61.0111 30.7747C61.4346 30.1793 62.0607 29.8726 62.8341 29.8726V27.3106C61.6924 27.3106 60.6796 27.5632 59.8141 28.0684C58.9486 28.5735 58.2673 29.2952 57.8069 30.2154C57.3466 31.1355 57.1072 32.2 57.1072 33.3728V33.5171C57.1072 35.4115 57.6228 36.9091 58.6724 38.0096C59.7036 39.1102 61.1031 39.6515 62.8341 39.6515V37.0895Z" fill="url(#paint28_linear_278_1042)"/>
<path d="M53.3875 37.3782C52.6325 37.1977 51.6197 37.2699 51.1594 37.2338C50.699 37.1977 50.4596 36.7828 50.4596 36.6023C50.4596 36.4219 50.5517 35.9167 50.5149 35.8085C50.478 35.7002 50.386 35.592 50.2202 35.5198C50.0545 35.4476 50.0361 35.0868 50.3123 34.9966C50.3123 34.9966 49.9072 34.8703 49.9072 34.6899C49.9072 34.5094 50.1097 34.3651 50.1282 34.1666C50.1282 33.9682 49.9072 33.878 49.5021 33.7878C49.0969 33.6975 48.8944 33.3547 49.4652 32.7052C50.0361 32.0557 50.2571 31.4964 50.2202 31.0453C50.1834 30.6665 49.8335 29.187 51.1225 27.9782C51.0489 28.0142 50.9752 28.0503 50.9016 28.0864C50.0361 28.5916 49.3732 29.3313 48.8944 30.2695C48.4156 31.2077 48.1946 32.2903 48.1946 33.481V33.7878C48.1946 35.5739 48.7471 36.9993 49.8704 38.0638C50.9936 39.1283 52.4484 39.6695 54.2162 39.6695C55.9839 39.6695 54.4924 39.6695 54.6213 39.6515V39.453C54.6213 39.453 54.1609 37.5766 53.3875 37.3782Z" fill="#0E63EC"/>
<path d="M55.1553 37.0354C55.6341 37.5947 56.0208 38.3524 56.1865 39.3809C56.4443 39.3087 56.7205 39.2185 56.9599 39.0922C57.7885 38.7133 58.4515 38.1901 58.9302 37.5045L57.3282 35.7544C56.7758 36.458 56.0392 36.873 55.1369 37.0173L55.1553 37.0354Z" fill="url(#paint29_linear_278_1042)"/>
<path d="M57.7701 28.8622C56.8126 27.8338 55.5052 27.3286 53.8479 27.3286C52.1906 27.3286 53.719 27.3286 53.6637 27.3286C53.4059 27.6534 52.6693 28.6637 52.1169 30.053C53.0376 29.8365 53.7558 29.8184 54.2898 29.9087C54.3635 29.9087 54.4371 29.9447 54.5108 29.9628C54.5108 29.9628 54.5292 29.9628 54.5476 29.9628C54.8054 30.035 55.0264 30.1252 55.2289 30.2695C56.2601 30.9731 56.0392 32.3444 56.0392 32.3444H51.5276C51.4356 33.03 51.4356 33.7517 51.5276 34.5094H59.2249V33.2104C59.2249 31.316 58.7461 29.8726 57.7885 28.8442L57.7701 28.8622Z" fill="url(#paint30_linear_278_1042)"/>
<path d="M59.2065 33.2284C59.2065 31.6948 58.8934 30.4499 58.2489 29.4937C58.0832 29.7282 57.9358 29.9628 57.8069 30.2154C57.3466 31.1355 57.1072 32.2 57.1072 33.3728V33.5171C57.1072 33.878 57.1256 34.2027 57.1624 34.5275H59.188V33.2284H59.2065Z" fill="url(#paint31_linear_278_1042)"/>
<path d="M51.675 31.5505C51.9699 31.5505 52.209 31.3163 52.209 31.0273C52.209 30.7383 51.9699 30.5041 51.675 30.5041C51.38 30.5041 51.1409 30.7383 51.1409 31.0273C51.1409 31.3163 51.38 31.5505 51.675 31.5505Z" fill="#0E63EC"/>
<defs>
<linearGradient id="paint0_linear_278_1042" x1="83.5657" y1="5.75814" x2="86.4825" y2="5.75814" gradientUnits="userSpaceOnUse">
<stop stop-color="#4BEECE"/>
<stop offset="1" stop-color="#3DEEC3"/>
</linearGradient>
<linearGradient id="paint1_linear_278_1042" x1="157.148" y1="148.252" x2="117.729" y2="18.4118" gradientUnits="userSpaceOnUse">
<stop stop-color="#0E63EC"/>
<stop offset="1" stop-color="#24E5B6"/>
</linearGradient>
<linearGradient id="paint2_linear_278_1042" x1="136.766" y1="124.417" x2="97.1383" y2="-5.35289" gradientUnits="userSpaceOnUse">
<stop stop-color="#0E63EC"/>
<stop offset="1" stop-color="#24E5B6"/>
</linearGradient>
<linearGradient id="paint3_linear_278_1042" x1="102.333" y1="138.81" x2="79.5661" y2="-15.7845" gradientUnits="userSpaceOnUse">
<stop stop-color="#4F80FF"/>
<stop offset="0.5" stop-color="#2BCAFF"/>
<stop offset="1" stop-color="#2FF582"/>
</linearGradient>
<linearGradient id="paint4_linear_278_1042" x1="95.1146" y1="121.077" x2="72.3477" y2="-33.5169" gradientUnits="userSpaceOnUse">
<stop stop-color="#0E63EC"/>
<stop offset="1" stop-color="#24E5B6"/>
</linearGradient>
<linearGradient id="paint5_linear_278_1042" x1="174.969" y1="168.632" x2="126.75" y2="10.4181" gradientUnits="userSpaceOnUse">
<stop stop-color="#4777CD"/>
<stop offset="1" stop-color="#75ECCF"/>
</linearGradient>
<linearGradient id="paint6_linear_278_1042" x1="115.868" y1="100.39" x2="67.6488" y2="-57.8248" gradientUnits="userSpaceOnUse">
<stop stop-color="#4777CD"/>
<stop offset="1" stop-color="#24E5B6"/>
</linearGradient>
<linearGradient id="paint7_linear_278_1042" x1="209.707" y1="209.202" x2="161.489" y2="50.9877" gradientUnits="userSpaceOnUse">
<stop stop-color="#4777CD"/>
<stop offset="1" stop-color="#75ECCF"/>
</linearGradient>
<linearGradient id="paint8_linear_278_1042" x1="185.345" y1="181.529" x2="137.356" y2="23.4628" gradientUnits="userSpaceOnUse">
<stop stop-color="#4777CD"/>
<stop offset="1" stop-color="#75ECCF"/>
</linearGradient>
<linearGradient id="paint9_linear_278_1042" x1="117.168" y1="105.713" x2="44.2872" y2="-118.914" gradientUnits="userSpaceOnUse">
<stop stop-color="#4777CD"/>
<stop offset="1" stop-color="#75ECCF"/>
</linearGradient>
<linearGradient id="paint10_linear_278_1042" x1="222.764" y1="237.026" x2="149.884" y2="12.3997" gradientUnits="userSpaceOnUse">
<stop stop-color="#4777CD"/>
<stop offset="1" stop-color="#75ECCF"/>
</linearGradient>
<linearGradient id="paint11_linear_278_1042" x1="253.284" y1="274.103" x2="180.403" y2="49.4766" gradientUnits="userSpaceOnUse">
<stop stop-color="#0E63EC"/>
<stop offset="1" stop-color="#24E5B6"/>
</linearGradient>
<linearGradient id="paint12_linear_278_1042" x1="241.076" y1="259.041" x2="168.195" y2="34.4141" gradientUnits="userSpaceOnUse">
<stop stop-color="#4777CD"/>
<stop offset="1" stop-color="#75ECCF"/>
</linearGradient>
<linearGradient id="paint13_linear_278_1042" x1="102.333" y1="139.347" x2="79.5661" y2="-15.2472" gradientUnits="userSpaceOnUse">
<stop stop-color="#4F80FF"/>
<stop offset="0.5" stop-color="#2BCAFF"/>
<stop offset="1" stop-color="#2FF582"/>
</linearGradient>
<linearGradient id="paint14_linear_278_1042" x1="298.096" y1="312.596" x2="205.677" y2="9.35213" gradientUnits="userSpaceOnUse">
<stop stop-color="#4777CD"/>
<stop offset="1" stop-color="#75ECCF"/>
</linearGradient>
<linearGradient id="paint15_linear_278_1042" x1="155.419" y1="266.765" x2="111.788" y2="-30.0364" gradientUnits="userSpaceOnUse">
<stop stop-color="#4F80FF"/>
<stop offset="0.5" stop-color="#2BCAFF"/>
<stop offset="1" stop-color="#2FF582"/>
</linearGradient>
<linearGradient id="paint16_linear_278_1042" x1="260.913" y1="269.855" x2="168.494" y2="-33.3893" gradientUnits="userSpaceOnUse">
<stop stop-color="#0E63EC"/>
<stop offset="1" stop-color="#75ECCF"/>
</linearGradient>
<linearGradient id="paint17_linear_278_1042" x1="155.851" y1="298.325" x2="70.9202" y2="-207.205" gradientUnits="userSpaceOnUse">
<stop stop-color="#4F80FF"/>
<stop offset="0.5" stop-color="#2BCAFF"/>
<stop offset="1" stop-color="#2FF582"/>
</linearGradient>
<linearGradient id="paint18_linear_278_1042" x1="145.475" y1="270.958" x2="60.5436" y2="-234.571" gradientUnits="userSpaceOnUse">
<stop stop-color="#4F80FF"/>
<stop offset="0.5" stop-color="#2BCAFF"/>
<stop offset="1" stop-color="#2FF582"/>
</linearGradient>
<linearGradient id="paint19_linear_278_1042" x1="109.157" y1="169.438" x2="24.2166" y2="-335.235" gradientUnits="userSpaceOnUse">
<stop stop-color="#4F80FF"/>
<stop offset="0.5" stop-color="#2BCAFF"/>
<stop offset="1" stop-color="#2FF582"/>
</linearGradient>
<linearGradient id="paint20_linear_278_1042" x1="48.1946" y1="33.49" x2="68.9477" y2="33.49" gradientUnits="userSpaceOnUse">
<stop stop-color="#75ECCF"/>
<stop offset="1" stop-color="#75ECCF"/>
</linearGradient>
<linearGradient id="paint21_linear_278_1042" x1="276.478" y1="632.899" x2="191.547" y2="127.37" gradientUnits="userSpaceOnUse">
<stop stop-color="#4F80FF"/>
<stop offset="0.5" stop-color="#2BCAFF"/>
<stop offset="1" stop-color="#2FF582"/>
</linearGradient>
<linearGradient id="paint22_linear_278_1042" x1="472.335" y1="585.229" x2="296.67" y2="78.949" gradientUnits="userSpaceOnUse">
<stop stop-color="#0E63EC"/>
<stop offset="1" stop-color="#24E5B6"/>
</linearGradient>
<linearGradient id="paint23_linear_278_1042" x1="443.8" y1="545.504" x2="268.066" y2="40.0202" gradientUnits="userSpaceOnUse">
<stop stop-color="#0E63EC"/>
<stop offset="1" stop-color="#24E5B6"/>
</linearGradient>
<linearGradient id="paint24_linear_278_1042" x1="376.352" y1="455.46" x2="199.877" y2="-51.2053" gradientUnits="userSpaceOnUse">
<stop stop-color="#4777CD"/>
<stop offset="1" stop-color="#24E5B6"/>
</linearGradient>
<linearGradient id="paint25_linear_278_1042" x1="355.599" y1="427.211" x2="179.866" y2="-78.2726" gradientUnits="userSpaceOnUse">
<stop stop-color="#0E63EC"/>
<stop offset="1" stop-color="#24E5B6"/>
</linearGradient>
<linearGradient id="paint26_linear_278_1042" x1="122.127" y1="207.398" x2="37.1965" y2="-298.131" gradientUnits="userSpaceOnUse">
<stop stop-color="#4F80FF"/>
<stop offset="0.5" stop-color="#2BCAFF"/>
<stop offset="1" stop-color="#2FF582"/>
</linearGradient>
<linearGradient id="paint27_linear_278_1042" x1="175.307" y1="352.174" x2="90.3669" y2="-152.499" gradientUnits="userSpaceOnUse">
<stop stop-color="#4F80FF"/>
<stop offset="0.5" stop-color="#2BCAFF"/>
<stop offset="1" stop-color="#2FF582"/>
</linearGradient>
<linearGradient id="paint28_linear_278_1042" x1="70.7494" y1="37.8265" x2="69.0712" y2="25.7214" gradientUnits="userSpaceOnUse">
<stop stop-color="#0E63EC"/>
<stop offset="1" stop-color="#75ECCF"/>
</linearGradient>
<linearGradient id="paint29_linear_278_1042" x1="66.5299" y1="42.5594" x2="54.63" y2="4.34229" gradientUnits="userSpaceOnUse">
<stop stop-color="#4777CD"/>
<stop offset="1" stop-color="#24E5B6"/>
</linearGradient>
<linearGradient id="paint30_linear_278_1042" x1="68.4556" y1="49.0474" x2="62.2796" y2="29.8639" gradientUnits="userSpaceOnUse">
<stop stop-color="#0E63EC"/>
<stop offset="1" stop-color="#75ECCF"/>
</linearGradient>
<linearGradient id="paint31_linear_278_1042" x1="79.6883" y1="45.561" x2="77.6391" y2="29.1032" gradientUnits="userSpaceOnUse">
<stop stop-color="#75ECCF"/>
<stop offset="1" stop-color="#BAD7F5"/>
</linearGradient>
</defs>
</svg>
